<svg version="1.1" id="Layer_1" xmlns="http://www.w3.org/2000/svg" x="0" y="0" viewBox="0 0 57.293 57.293" style="enable-background:new 0 0 57.293 57.293" xml:space="preserve"><path style="fill:#fff" d="M28.646 25.293c1.304 0 2.416-1 2.829-2h-5.657c.412 1 1.524 2 2.828 2z"/><path style="fill:#ad8762" d="M37.028 27.293H7.264l-4 8h29.764z"/><path style="fill:#ad8762" d="M33.646 37.293h-26v14.708c0 1.654 1.346 3.292 3 3.292h7V44.001a.998.998 0 0 1 1.447-.895l1.553.776 1.552-.776a1 1 0 0 1 .895 0l1.553.776 1.553-.776a.998.998 0 0 1 1.447.895v11.292h10V30.237l-3.106 6.357c-.169.339-.514.699-.894.699z"/><path style="fill:#66cedb" d="m24.199 45.895-1.553-.776-1.552.776a1 1 0 0 1-.895 0l-.553-.276v9.674h6v-9.674l-.553.276a.998.998 0 0 1-.894 0z"/><path style="fill:#ad8762" d="m42.751 36.594-3.105-6.357v25.056h7c1.654 0 3-1.638 3-3.292V37.293h-6c-.379 0-.724-.36-.895-.699z"/><path style="fill:#fdddca" d="M23.646 22.293a1 1 0 0 1 1-1h8a1 1 0 0 1 1 1c0 1.13-.391 2-1.026 3h4.026v-8.292c0-1.655-1.346-2.708-3-2.708h-10c-1.654 0-3 1.053-3 2.708v8.292h4.026c-.634-1-1.026-1.87-1.026-3zm8-5.292a1 1 0 1 1 0 2 1 1 0 0 1 0-2zm-6 0a1 1 0 1 1 0 2 1 1 0 0 1 0-2z"/><path style="fill:#ad8762" d="M48.646 27.293h-8.382l4 8h9.764l-4-8z"/><path d="M51.541 25.699c-.169-.338-.515-.406-.894-.406h-12v-8.292c0-2.757-2.243-4.708-5-4.708h-10c-2.757 0-5 1.951-5 4.708v8.292h-12c-.379 0-.725.068-.895.406l-5 9.927c-.155.31-.138.787.044 1.082.182.296.504.585.851.585h4v14.708c0 2.756 2.243 5.292 5 5.292h36c2.757 0 5-2.536 5-5.292V37.293h4c.347 0 .668-.326.851-.621a1 1 0 0 0 .044-.973l-5.001-10zm-30.895-8.698c0-1.655 1.346-2.708 3-2.708h10c1.654 0 3 1.053 3 2.708v8.292H32.62c.635-1 1.026-1.87 1.026-3a1 1 0 0 0-1-1h-8a1 1 0 0 0-1 1c0 1.13.391 2 1.026 3h-4.026v-8.292zm5.171 6.292h5.657c-.413 1-1.525 2-2.829 2-1.303 0-2.415-1-2.828-2zm-18.553 4H37.028l-4 8H3.264l4-8zm.382 24.708V37.293h26c.379 0 .725-.36.894-.699l3.106-6.357v25.056h-10V44.001a.998.998 0 0 0-1.447-.895l-1.553.776-1.553-.776a1 1 0 0 0-.895 0l-1.552.776-1.553-.776a.998.998 0 0 0-1.447.895v11.292h-7c-1.654 0-3-1.638-3-3.292zm12 3.292v-9.674l.553.276a1 1 0 0 0 .895 0l1.552-.776 1.553.776a1 1 0 0 0 .895 0l.552-.276v9.674h-6zm30-3.292c0 1.654-1.346 3.292-3 3.292h-7V30.237l3.105 6.357c.17.339.516.699.895.699h6v14.708zm-5.382-16.708-4-8h9.764l4 8h-9.764z"/><circle cx="25.646" cy="18.001" r="1"/><circle cx="31.646" cy="18.001" r="1"/><path d="M8.646 23.293h2c0-6-4.486-10.292-10-10.292v2c4.411 0 8 3.292 8 8.292zM12.646 14.293h2c0-8-5.832-13.293-13-13.293v2c6.065 0 11 4.293 11 11.293zM23.646 10.293h2c0-5-4.038-9.292-9-9.292v2c3.861-.001 7 3.292 7 7.292zM46.646 23.293h2c0-5 3.589-8.292 8-8.292v-2c-5.514 0-10 4.292-10 10.292zM55.646 3V1c-7.169 0-13 5.293-13 13.293h2c0-7 4.936-11.293 11-11.293zM40.646 3V1c-4.962 0-9 4.293-9 9.293h2c0-4 3.14-7.293 7-7.293zM12.646 16.001h2v2h-2zM12.646 20.001h2v2h-2zM42.646 16.001h2v2h-2zM42.646 20.001h2v2h-2zM12.646 1h2v2h-2zM42.646 1h2v2h-2zM27.646 8.001h2v2h-2zM27.646 4h2v2h-2zM27.646 0h2v2h-2zM17.646 8.001h2v2h-2zM37.646 8.001h2v2h-2z"/></svg>